<svg width="889" height="219" viewBox="0 0 889 219" fill="none" xmlns="http://www.w3.org/2000/svg">
<path d="M0.758756 219L99.0388 0.599985H138.975L237.567 219H195.135L110.583 22.128H126.807L42.5668 219H0.758756ZM45.9988 168.456L56.9188 136.632H174.855L185.775 168.456H45.9988ZM280.942 219V0.599985H370.798C390.142 0.599985 406.678 3.71999 420.406 9.95999C434.342 16.2 445.054 25.144 452.542 36.792C460.03 48.44 463.774 62.272 463.774 78.288C463.774 94.304 460.03 108.136 452.542 119.784C445.054 131.224 434.342 140.064 420.406 146.304C406.678 152.336 390.142 155.352 370.798 155.352H303.406L321.502 136.944V219H280.942ZM423.838 219L368.614 139.752H411.982L467.518 219H423.838ZM321.502 141.312L303.406 121.968H368.926C386.814 121.968 400.23 118.12 409.174 110.424C418.326 102.728 422.902 92.016 422.902 78.288C422.902 64.352 418.326 53.64 409.174 46.152C400.23 38.664 386.814 34.92 368.926 34.92H303.406L321.502 14.952V141.312ZM566.01 219V34.92H493.626V0.599985H678.954V34.92H606.57V219H566.01ZM762.434 91.392H871.01V124.776H762.434V91.392ZM765.554 184.992H888.794V219H724.994V0.599985H884.426V34.608H765.554V184.992Z" fill="black"/>
</svg>
