<svg width="916" height="542" viewBox="0 0 916 542" fill="none" xmlns="http://www.w3.org/2000/svg">
<path d="M394.847 203.76C402.543 180.256 409.927 160.704 416.999 145.104C424.071 129.504 431.143 117.232 438.215 108.288C445.287 99.136 452.671 92.688 460.367 88.944C468.271 85.2 476.695 83.328 485.639 83.328C494.375 83.328 500.823 85.408 504.983 89.568C509.351 93.728 511.743 99.344 512.159 106.416C512.575 113.28 511.223 121.288 508.103 130.44L477.527 222.48C476.487 225.6 475.863 228.408 475.655 230.904C475.655 233.192 476.071 234.96 476.903 236.208C477.943 237.456 479.607 238.08 481.895 238.08C484.599 238.08 487.511 236.624 490.631 233.712C493.959 230.592 497.495 223.832 501.239 213.432L506.855 198.456H512.783L504.983 221.232C502.071 229.968 498.223 236.624 493.439 241.2C488.863 245.776 483.975 248.896 478.775 250.56C473.575 252.432 468.375 253.368 463.175 253.368C454.439 253.368 447.679 251.496 442.895 247.752C438.111 243.8 435.407 238.184 434.783 230.904C434.367 223.416 435.927 214.368 439.463 203.76L467.231 119.52C468.479 115.776 469.415 112.344 470.039 109.224C470.663 106.104 470.455 103.608 469.415 101.736C468.583 99.864 466.711 98.928 463.799 98.928C458.807 98.928 453.191 102.256 446.951 108.912C440.919 115.36 434.471 124.928 427.607 137.616C420.951 150.096 414.191 165.488 407.327 183.792C400.671 201.888 394.327 222.584 388.295 245.88L394.847 203.76ZM408.575 9.69599C417.311 9.07199 425.423 8.03199 432.911 6.576C440.607 5.11999 447.991 3.24799 455.063 0.959995L387.359 249C387.359 249 385.799 249 382.679 249C379.767 249 376.127 249 371.759 249C367.599 249 363.335 249 358.967 249C354.599 249 350.855 249 347.735 249C344.823 249 343.367 249 343.367 249L408.575 9.69599ZM283.775 34.032C283.775 34.032 285.439 34.24 288.767 34.656C292.095 34.864 296.151 35.28 300.935 35.904C305.719 36.32 310.399 36.84 314.975 37.464C319.759 37.88 323.815 38.192 327.143 38.4C330.471 38.608 332.135 38.712 332.135 38.712L285.959 212.808C284.087 220.296 283.359 226.224 283.775 230.592C284.399 234.752 286.687 237.768 290.639 239.64C294.799 241.304 301.039 242.344 309.359 242.76L308.111 249C301.663 248.584 293.239 248.376 282.839 248.376C272.439 248.168 261.623 248.064 250.391 248.064C239.575 248.064 229.175 248.168 219.191 248.376C209.415 248.376 201.511 248.584 195.479 249L196.727 242.76C205.463 242.344 212.327 241.304 217.319 239.64C222.311 237.768 226.159 234.752 228.863 230.592C231.775 226.224 234.271 220.296 236.351 212.808L283.775 34.032ZM413.567 34.968C406.079 38.92 398.071 41.624 389.543 43.08C381.223 44.328 371.863 44.952 361.463 44.952C353.143 44.952 344.199 44.432 334.631 43.392C325.271 42.352 315.599 41.104 305.615 39.648C295.631 38.192 285.855 36.944 276.287 35.904C266.927 34.864 257.983 34.344 249.455 34.344C242.383 34.344 235.623 34.76 229.175 35.592C222.935 36.216 217.943 37.568 214.199 39.648C219.607 41.104 224.079 44.12 227.615 48.696C231.359 53.272 233.231 58.68 233.231 64.92C233.231 71.992 230.943 78.128 226.367 83.328C221.999 88.528 216.175 91.128 208.895 91.128C201.615 91.128 195.999 88.736 192.047 83.952C188.303 78.96 186.431 73.136 186.431 66.48C186.431 61.488 187.783 56.184 190.487 50.568C193.399 44.744 198.807 39.96 206.711 36.216C211.703 33.72 216.799 31.952 221.999 30.912C227.407 29.872 232.503 29.248 237.287 29.04C242.071 28.832 245.815 28.728 248.519 28.728C262.455 28.728 275.975 29.56 289.079 31.224C302.183 32.888 314.975 34.552 327.455 36.216C340.143 37.88 352.415 38.712 364.271 38.712C375.295 38.712 384.239 37.984 391.103 36.528C397.967 35.072 404.935 32.576 412.007 29.04L413.567 34.968ZM583.212 181.296C591.74 177.968 599.852 174.224 607.548 170.064C615.244 165.904 621.796 161.328 627.204 156.336C635.316 149.056 641.764 140.632 646.548 131.064C651.54 121.288 654.036 110.784 654.036 99.552C654.036 95.392 653.62 92.688 652.788 91.44C651.956 89.984 650.708 89.256 649.044 89.256C644.468 89.256 639.476 91.648 634.068 96.432C628.868 101.008 623.668 107.248 618.468 115.152C613.268 122.848 608.484 131.688 604.116 141.672C599.956 151.656 596.524 162.056 593.82 172.872C591.324 183.688 590.076 194.192 590.076 204.384C590.076 216.032 592.26 224.04 596.628 228.408C601.204 232.568 607.028 234.648 614.1 234.648C619.716 234.648 626.684 232.776 635.004 229.032C643.324 225.288 651.54 218.632 659.652 209.064L664.644 211.56C660.276 218.424 654.556 225.08 647.484 231.528C640.412 237.976 632.196 243.28 622.836 247.44C613.476 251.392 603.284 253.368 592.26 253.368C582.9 253.368 574.476 251.704 566.988 248.376C559.708 245.048 553.884 240.16 549.516 233.712C545.356 227.056 543.276 218.944 543.276 209.376C543.276 198.352 545.044 187.016 548.58 175.368C552.324 163.72 557.524 152.488 564.18 141.672C570.836 130.648 578.844 120.768 588.204 112.032C597.564 103.088 607.964 96.12 619.404 91.128C630.844 85.928 643.012 83.328 655.908 83.328C665.06 83.328 672.756 85.408 678.996 89.568C685.236 93.52 688.356 99.656 688.356 107.976C688.356 116.088 686.068 123.68 681.492 130.752C677.124 137.824 671.196 144.272 663.708 150.096C656.22 155.92 647.796 161.12 638.436 165.696C629.284 170.272 619.82 174.224 610.044 177.552C600.476 180.88 591.428 183.48 582.9 185.352L583.212 181.296ZM150.72 316.416C174.848 316.416 192.32 320.16 203.136 327.648C213.952 335.136 219.36 345.12 219.36 357.6C219.36 368.416 215.824 378.4 208.752 387.552C201.888 396.496 192.112 403.88 179.424 409.704C166.944 415.528 152.28 419.272 135.432 420.936C158.936 421.976 176.512 427.072 188.16 436.224C199.808 445.168 205.632 456.296 205.632 469.608C205.632 480.424 203.032 490.096 197.832 498.624C192.84 506.944 185.664 514.016 176.304 519.84C167.152 525.456 156.336 529.72 143.856 532.632C131.376 535.544 117.752 537 102.984 537C96.5361 537 89.0481 536.896 80.5201 536.688C72.2001 536.272 61.4881 536.064 48.3841 536.064C43.1841 536.064 37.5681 536.168 31.5361 536.376C25.5041 536.376 19.6801 536.48 14.0641 536.688C8.44811 536.688 3.76811 536.792 0.0241118 537L1.27211 530.76C8.34411 530.344 13.8561 529.512 17.8081 528.264C21.7601 527.016 24.8801 524.52 27.1681 520.776C29.4561 517.032 31.5361 511.416 33.4081 503.928L74.5921 349.176C76.2561 342.728 77.0881 337.632 77.0881 333.888C77.2961 329.936 75.8401 327.128 72.7201 325.464C69.8081 323.592 64.2961 322.552 56.1841 322.344L57.7441 316.104C61.4881 316.312 66.0641 316.52 71.4721 316.728C77.0881 316.728 82.8081 316.832 88.6321 317.04C94.6641 317.04 100.176 317.04 105.168 317.04C114.736 317.04 122.952 316.936 129.816 316.728C136.68 316.52 143.648 316.416 150.72 316.416ZM92.6881 424.992L93.9361 419.688H116.088C127.944 419.688 137.824 416.464 145.728 410.016C153.84 403.568 159.976 395.248 164.136 385.056C168.296 374.656 170.376 363.84 170.376 352.608C170.376 343.456 168.608 336.176 165.072 330.768C161.744 325.152 155.504 322.344 146.352 322.344C140.112 322.344 135.536 323.8 132.624 326.712C129.92 329.624 127.424 335.552 125.136 344.496L83.0161 503.928C81.7681 508.504 80.9361 512.768 80.5201 516.72C80.1041 520.672 80.9361 523.896 83.0161 526.392C85.0961 528.68 89.2561 529.824 95.4961 529.824C108.184 529.824 118.792 526.808 127.32 520.776C135.848 514.744 142.296 506.736 146.664 496.752C151.24 486.768 153.528 475.848 153.528 463.992C153.528 456.504 152.384 449.848 150.096 444.024C147.808 438.2 143.96 433.624 138.552 430.296C133.352 426.76 126.384 424.992 117.648 424.992H92.6881ZM281.358 469.296C289.886 465.968 297.998 462.224 305.694 458.064C313.39 453.904 319.942 449.328 325.35 444.336C333.462 437.056 339.91 428.632 344.694 419.064C349.686 409.288 352.182 398.784 352.182 387.552C352.182 383.392 351.766 380.688 350.934 379.44C350.102 377.984 348.854 377.256 347.19 377.256C342.614 377.256 337.622 379.648 332.214 384.432C327.014 389.008 321.814 395.248 316.614 403.152C311.414 410.848 306.63 419.688 302.262 429.672C298.102 439.656 294.67 450.056 291.966 460.872C289.47 471.688 288.222 482.192 288.222 492.384C288.222 504.032 290.406 512.04 294.774 516.408C299.35 520.568 305.174 522.648 312.246 522.648C317.862 522.648 324.83 520.776 333.15 517.032C341.47 513.288 349.686 506.632 357.798 497.064L362.79 499.56C358.422 506.424 352.702 513.08 345.63 519.528C338.558 525.976 330.342 531.28 320.982 535.44C311.622 539.392 301.43 541.368 290.406 541.368C281.046 541.368 272.622 539.704 265.134 536.376C257.854 533.048 252.03 528.16 247.662 521.712C243.502 515.056 241.422 506.944 241.422 497.376C241.422 486.352 243.19 475.016 246.726 463.368C250.47 451.72 255.67 440.488 262.326 429.672C268.982 418.648 276.99 408.768 286.35 400.032C295.71 391.088 306.11 384.12 317.55 379.128C328.99 373.928 341.158 371.328 354.054 371.328C363.206 371.328 370.902 373.408 377.142 377.568C383.382 381.52 386.502 387.656 386.502 395.976C386.502 404.088 384.214 411.68 379.638 418.752C375.27 425.824 369.342 432.272 361.854 438.096C354.366 443.92 345.942 449.12 336.582 453.696C327.43 458.272 317.966 462.224 308.19 465.552C298.622 468.88 289.574 471.48 281.046 473.352L281.358 469.296ZM456.936 524.52C460.264 524.52 463.904 522.752 467.856 519.216C471.808 515.68 475.864 510.584 480.024 503.928C484.184 497.064 488.24 488.744 492.192 478.968C496.144 469.192 499.784 457.856 503.112 444.96L496.248 478.968C491.048 494.36 485.328 506.632 479.088 515.784C472.848 524.936 466.192 531.488 459.12 535.44C452.048 539.392 444.664 541.368 436.968 541.368C425.32 541.368 416.584 537.936 410.76 531.072C404.936 524.208 402.024 514.848 402.024 502.992C402.024 491.76 403.896 480.008 407.64 467.736C411.592 455.464 416.792 443.608 423.24 432.168C429.896 420.728 437.28 410.432 445.392 401.28C453.712 392.128 462.448 384.848 471.6 379.44C480.96 374.032 490.112 371.328 499.056 371.328C505.92 371.328 511.224 374.032 514.968 379.44C518.712 384.848 519.856 393.272 518.4 404.712L514.968 406.584C516.008 399.096 515.592 393.272 513.72 389.112C512.056 384.952 509.144 382.872 504.984 382.872C500.824 382.872 496.144 385.264 490.944 390.048C485.952 394.832 480.96 401.384 475.968 409.704C470.976 418.024 466.296 427.488 461.928 438.096C457.768 448.496 454.44 459.52 451.944 471.168C449.448 482.608 448.2 493.944 448.2 505.176C448.2 512.248 448.928 517.24 450.384 520.152C451.84 523.064 454.024 524.52 456.936 524.52ZM523.08 376.008C532.024 375.8 540.136 375.384 547.416 374.76C554.696 373.928 561.664 372.784 568.32 371.328L527.448 510.48C526.824 513.184 526.304 515.784 525.888 518.28C525.68 520.568 525.992 522.44 526.824 523.896C527.864 525.352 529.528 526.08 531.816 526.08C534.52 526.08 537.536 524.52 540.864 521.4C544.192 518.072 547.624 511.416 551.16 501.432L556.776 486.456H562.704L554.904 509.232C551.992 517.76 548.248 524.312 543.672 528.888C539.096 533.464 534.208 536.688 529.008 538.56C523.808 540.432 518.712 541.368 513.72 541.368C502.904 541.368 495.208 538.144 490.632 531.696C487.512 527.12 486.056 521.504 486.264 514.848C486.68 507.984 488.136 500.184 490.632 491.448L523.08 376.008ZM703.608 377.568C695.912 377.568 688.32 380.896 680.832 387.552C673.344 394 666.584 402.736 660.552 413.76C654.728 424.784 650.048 437.16 646.512 450.888C642.976 464.616 641.208 478.76 641.208 493.32C641.208 504.344 643.392 512.352 647.76 517.344C652.128 522.128 657.848 524.52 664.92 524.52C671.576 524.52 678.336 522.544 685.2 518.592C692.064 514.64 699.032 507.464 706.104 497.064L712.344 499.56C708.184 506.424 702.776 513.08 696.12 519.528C689.672 525.976 682.08 531.28 673.344 535.44C664.816 539.392 655.144 541.368 644.328 541.368C629.768 541.368 617.808 537.52 608.448 529.824C599.088 521.92 594.408 509.752 594.408 493.32C594.408 483.128 595.968 472.416 599.088 461.184C602.416 449.952 607.096 439.032 613.128 428.424C619.16 417.608 626.544 407.936 635.28 399.408C644.016 390.88 653.896 384.12 664.92 379.128C675.944 373.928 687.904 371.328 700.8 371.328C712.24 371.328 721.392 374.24 728.256 380.064C735.328 385.68 738.864 392.752 738.864 401.28C738.864 406.896 737.512 412.408 734.808 417.816C732.104 423.016 728.36 427.384 723.576 430.92C719 434.248 713.8 435.912 707.976 435.912C702.984 435.912 698.72 434.352 695.184 431.232C691.856 427.904 690.192 423.432 690.192 417.816C690.192 409.288 693 402.008 698.616 395.976C704.44 389.736 711.096 385.68 718.584 383.808C716.92 381.728 714.84 380.168 712.344 379.128C710.056 378.088 707.144 377.568 703.608 377.568ZM790.31 537H746.318L808.094 328.896C810.174 321.824 809.966 316.624 807.47 313.296C804.974 309.968 798.63 308.304 788.438 308.304L790.31 301.752C805.078 301.544 818.286 300.4 829.934 298.32C841.582 296.032 852.606 292.912 863.006 288.96L790.31 537ZM798.11 491.76C806.43 467.84 814.126 448.08 821.198 432.48C828.478 416.88 835.55 404.608 842.414 395.664C849.278 386.72 856.35 380.48 863.63 376.944C870.91 373.2 878.71 371.328 887.03 371.328C897.222 371.328 904.398 373.512 908.558 377.88C912.926 382.248 915.11 388.072 915.11 395.352C915.11 402.424 913.758 410.12 911.054 418.44L880.478 510.48C878.606 516.096 878.19 520.152 879.23 522.648C880.27 524.936 882.142 526.08 884.846 526.08C887.55 526.08 890.462 524.624 893.582 521.712C896.91 518.592 900.446 511.832 904.19 501.432L909.806 486.456H915.734L907.934 509.232C905.022 517.968 901.174 524.624 896.39 529.2C891.814 533.776 886.822 536.896 881.414 538.56C876.214 540.432 871.118 541.368 866.126 541.368C856.142 541.368 848.862 539.184 844.286 534.816C839.918 530.24 837.734 524.208 837.734 516.72C837.734 509.024 839.294 500.704 842.414 491.76L870.182 407.52C871.43 403.984 872.262 400.656 872.678 397.536C873.302 394.416 873.198 391.92 872.366 390.048C871.742 387.968 869.974 386.928 867.062 386.928C863.11 386.928 858.534 389.528 853.334 394.728C848.134 399.928 842.726 407.208 837.11 416.568C831.702 425.928 826.19 436.848 820.574 449.328C815.166 461.808 809.862 475.224 804.662 489.576C799.67 503.928 795.198 518.696 791.246 533.88L798.11 491.76Z" fill="#3C6A5A"/>
</svg>
